<svg height='100px' width='100px'  fill="#c37930" xmlns="http://www.w3.org/2000/svg" xmlns:xlink="http://www.w3.org/1999/xlink" version="1.1" x="0px" y="0px" viewBox="0 0 283.46 283.46" enable-background="new 0 0 283.46 283.46" xml:space="preserve"><g><path fill="#c37930" d="M75.771,79.736c2.104-3.367,2.315-18.519,3.157-30.725c0.842-12.206,8.828-16.784,16.415-16.625   c10.101,0.21,21.044,18.028,21.044,18.028s-2.946-14.59-10.943-23.008c-7.586-7.986-23.008-6.032-31.146,2.456   c-7.826,8.164-5.472,24.412-7.366,40.405c-1.327,11.203-6.145,25.488-7.829,30.25C63.245,90.181,75.771,79.737,75.771,79.736z"></path><path fill="#c37930" d="M176.364,27.406c-7.996,8.418-10.942,23.008-10.942,23.008s10.942-17.818,21.044-18.028   c7.586-0.159,15.573,4.419,16.415,16.625c0.842,12.206,1.052,27.358,3.156,30.725c0,0.001,12.525,10.444,16.668,20.781   c-1.686-4.763-6.502-19.048-7.829-30.25c-1.895-15.994,0.46-32.242-7.365-40.405C199.373,21.374,183.952,19.42,176.364,27.406z"></path><path fill="#c37930" d="M228.285,130.726c-0.016-0.438-0.044-0.862-0.064-1.292c-1.024,0.093-2.047,0.19-3.07,0.28   c-0.178-2.022-0.355-4.044-0.534-6.066c1.027-0.09,2.056-0.188,3.083-0.282c-6.732-54.168-64.832-56.254-64.832-56.254   c-2.286-26.516,12.626-43.772,12.626-43.772l-34.273,0.421l-34.513-0.421c0,0,15.432,17.537,12.626,43.772   c0,0-58.164,2.088-64.844,56.342c8.418,0.76,16.844,1.416,25.276,1.953c-0.544,8.553-1.089,17.106-1.634,25.66   c-2.018-0.128-4.035-0.263-6.051-0.404c0.483-6.91,0.966-13.821,1.448-20.731c-5.793-0.404-11.583-0.862-17.37-1.372   c-0.519,5.884-1.037,11.768-1.556,17.65c0.52,4.522,1.312,9.287,2.439,14.34c0,0,12.802,58.259,73.129,114.376   c0,0-17.888,4.367,9.154,5.524l2.315,0.012c27.541-1.031,7.716-5.57,7.716-5.57c67.903-61.73,75.801-114.342,75.801-114.342   c0.286-1.281,0.545-2.539,0.791-3.785c-7.464,0.646-14.932,1.207-22.403,1.683c-0.545-8.553-1.09-17.106-1.635-25.66   c1.98-0.126,3.959-0.258,5.938-0.396c0.482,6.91,0.966,13.821,1.448,20.731c5.852-0.408,11.7-0.871,17.546-1.384   c0.056-0.352,0.103-0.695,0.155-1.045c-0.578-6.568-1.158-13.135-1.735-19.703C226.271,130.905,227.278,130.812,228.285,130.726z    M89.66,159.137c-10.101-0.521-20.197-1.195-30.283-2.026c0.703-8.541,1.406-17.083,2.108-25.625   c1.978,0.163,3.956,0.32,5.935,0.469c-0.525,6.908-1.051,13.815-1.577,20.724c5.932,0.451,11.866,0.848,17.802,1.191   c0.401-6.924,0.802-13.848,1.202-20.772c2.045,0.126,4.09,0.247,6.136,0.361C90.543,142.018,90.101,150.577,89.66,159.137z    M91.05,132.155c-2.042-0.105-4.085-0.217-6.128-0.335c0.119-2.026,0.235-4.054,0.353-6.079c2.029,0.117,4.059,0.229,6.089,0.332   C91.26,128.101,91.154,130.128,91.05,132.155z M101.065,159.658c-2.101-0.084-4.202-0.175-6.303-0.272   c0.094-2.027,0.188-4.055,0.283-6.083c2.088,0.098,4.176,0.187,6.264,0.271C101.228,155.602,101.146,157.63,101.065,159.658z    M101.359,152.294c-2.085-0.092-4.17-0.19-6.255-0.295c0.397-8.562,0.793-17.123,1.189-25.685   c9.766,0.452,19.538,0.755,29.311,0.909c-0.135,8.569-0.269,17.139-0.402,25.708c-2.021-0.031-4.042-0.069-6.062-0.113   c0.151-6.926,0.303-13.852,0.454-20.777c-5.802-0.127-11.604-0.306-17.404-0.538C101.913,138.433,101.636,145.363,101.359,152.294z    M137.1,160.441c-10.112-0.036-20.223-0.227-30.331-0.572c0.293-8.565,0.585-17.131,0.879-25.697   c1.981,0.068,3.964,0.129,5.946,0.185c-0.194,6.925-0.388,13.85-0.581,20.773c5.942,0.167,11.885,0.28,17.829,0.338   c0.069-6.935,0.137-13.869,0.206-20.806c2.048,0.03,4.095,0.051,6.144,0.066C137.16,143.301,137.13,151.871,137.1,160.441z    M137.195,133.424c-2.044-0.007-4.09-0.021-6.135-0.041c0.02-2.03,0.04-4.06,0.061-6.09c2.032,0.021,4.064,0.034,6.096,0.041   C137.209,129.364,137.202,131.395,137.195,133.424z M183.945,126.359c0.092,2.028,0.185,4.056,0.275,6.083   c-2.043,0.093-4.087,0.179-6.131,0.258c-0.079-2.027-0.157-4.056-0.236-6.085C179.884,126.536,181.915,126.451,183.945,126.359z    M143.023,127.337c9.773-0.024,19.547-0.199,29.317-0.523c0.283,8.566,0.567,17.132,0.853,25.699   c-2.02,0.066-4.041,0.127-6.061,0.182c-0.187-6.925-0.374-13.85-0.561-20.774c-5.802,0.157-11.605,0.261-17.408,0.312   c0.062,6.936,0.123,13.87,0.185,20.806c-2.087,0.011-4.173,0.015-6.261,0.011C143.066,144.479,143.045,135.908,143.023,127.337z    M143.107,160.444c-0.006-2.03-0.01-4.06-0.016-6.09c2.09-0.005,4.179-0.017,6.269-0.035c0.019,2.029,0.036,4.059,0.054,6.09   C147.312,160.427,145.21,160.439,143.107,160.444z M155.121,160.342c-0.127-8.57-0.252-17.14-0.378-25.71   c1.983-0.029,3.966-0.064,5.948-0.105c0.145,6.925,0.289,13.851,0.433,20.777c5.943-0.123,11.885-0.301,17.825-0.532   c-0.27-6.93-0.539-13.86-0.809-20.791c2.047-0.072,4.094-0.15,6.14-0.234c0.388,8.562,0.775,17.125,1.164,25.686   C175.34,159.891,165.231,160.193,155.121,160.342z M191.547,159.137c-0.104-2.027-0.209-4.055-0.313-6.082   c2.089-0.107,4.176-0.221,6.262-0.342c0.118,2.026,0.235,4.053,0.353,6.079C195.748,158.913,193.647,159.028,191.547,159.137z    M215.177,150.22c-0.525-6.907-1.051-13.814-1.577-20.722c-5.79,0.44-11.585,0.829-17.381,1.164   c0.401,6.925,0.803,13.849,1.202,20.772c-2.084,0.112-4.169,0.219-6.254,0.317c-0.441-8.56-0.882-17.118-1.322-25.678   c9.764-0.502,19.521-1.155,29.271-1.958c0.703,8.542,1.405,17.084,2.108,25.626C219.208,149.907,217.193,150.066,215.177,150.22z"></path><path fill="#c37930" d="M104.479,20.673c0,0,18.432,0,37.582,0c0.029,0,0.059,0,0.089,0c19.149,0,37.581,0,37.581,0   s16.555-1.052,16.555-17.397h-54.136h-0.089H87.924C87.924,19.621,104.479,20.673,104.479,20.673z"></path></g></svg>