<?xml version="1.0" encoding="UTF-8" standalone="no"?>
<svg
   xmlns:dc="http://purl.org/dc/elements/1.1/"
   xmlns:cc="http://creativecommons.org/ns#"
   xmlns:rdf="http://www.w3.org/1999/02/22-rdf-syntax-ns#"
   xmlns:svg="http://www.w3.org/2000/svg"
   xmlns="http://www.w3.org/2000/svg"
   xmlns:sodipodi="http://sodipodi.sourceforge.net/DTD/sodipodi-0.dtd"
   xmlns:inkscape="http://www.inkscape.org/namespaces/inkscape"
   viewBox="0 0 60 59.999695"
   x="0px"
   y="0px"
   version="1.1"
   id="svg4596"
   sodipodi:docname="developer.svg"
   width="60"
   height="59.999695"
   inkscape:version="0.92.5 (0.92.5+68)">
  <metadata
     id="metadata4602">
    <rdf:RDF>
      <cc:Work
         rdf:about="">
        <dc:format>image/svg+xml</dc:format>
        <dc:type
           rdf:resource="http://purl.org/dc/dcmitype/StillImage" />
        <dc:title></dc:title>
      </cc:Work>
    </rdf:RDF>
  </metadata>
  <defs
     id="defs4600" />
  <sodipodi:namedview
     pagecolor="#ffffff"
     bordercolor="#666666"
     borderopacity="1"
     objecttolerance="10"
     gridtolerance="10"
     guidetolerance="10"
     inkscape:pageopacity="0"
     inkscape:pageshadow="2"
     inkscape:window-width="2560"
     inkscape:window-height="1375"
     id="namedview4598"
     showgrid="false"
     inkscape:zoom="14.8375"
     inkscape:cx="21.912384"
     inkscape:cy="35.47936"
     inkscape:window-x="0"
     inkscape:window-y="0"
     inkscape:window-maximized="1"
     inkscape:current-layer="svg4596" />
  <g
     id="g4590"
     transform="translate(-2,-2.0003043)">
    <path
       d="m 21.071,21.629 1.858,0.742 -4,10 -1.858,-0.742 z M 15.4,23.2 l -4,3 a 1,1 0 0 0 0,1.6 l 4,3 1.2,-1.6 L 13.667,27 16.6,24.8 Z m 9.2,7.6 4,-3 a 1,1 0 0 0 0,-1.6 l -4,-3 -1.2,1.6 2.933,2.2 -2.933,2.2 z M 6,19 H 8 V 17 H 6 Z m 6,-2 h -2 v 2 h 2 z m 4,0 h -2 v 2 h 2 z M 61.739,39.322 A 6.886,6.886 0 0 1 62,41.2 V 57 a 5.006,5.006 0 0 1 -5,5 H 54 A 1.021,1.021 0 0 1 53.794,61.979 L 41.986,59.493 30.207,61.979 A 1.031,1.031 0 0 1 30,62 h -3 a 5.006,5.006 0 0 1 -5,-5 v -3 h -8 a 3,3 0 0 1 -3,-3 3.015,3.015 0 0 1 3,-3 h 1.279 l 1.333,-4 H 6 A 4,4 0 0 1 2,40 V 17 A 4,4 0 0 1 6,13 H 28.142 A 3.939,3.939 0 0 1 28,12 4.009,4.009 0 0 1 31.016,8.122 4.506,4.506 0 0 1 35.5,4 a 4.448,4.448 0 0 1 2.144,0.554 4.992,4.992 0 0 1 8.712,0 A 4.448,4.448 0 0 1 48.5,4 4.506,4.506 0 0 1 52.984,8.122 3.985,3.985 0 0 1 53.9,15.5 3.986,3.986 0 0 1 52,23 H 51.938 A 9.947,9.947 0 0 1 48,29.973 v 3.159 l 7.991,1.138 a 6.862,6.862 0 0 1 1.634,0.454 7.069,7.069 0 0 1 4.114,4.598 z M 55,44 v 3.34 l 0.6,-0.259 A 0.99,0.99 0 0 1 56,47 h 4 v -5.8 a 4.933,4.933 0 0 0 -0.288,-1.631 5.074,5.074 0 0 0 -2.3,-2.746 4.936,4.936 0 0 0 -1.7,-0.573 l -7.991,-1.142 -0.1,-0.014 a 6.314,6.314 0 0 1 -11.2,0.05 l -8.46,1.813 a 4.945,4.945 0 0 0 -1.567,0.633 l -0.017,0.009 c -0.039,0.025 -0.073,0.058 -0.112,0.084 a 5.029,5.029 0 0 0 -2.216,3.7 c -0.014,0.153 -0.04,0.3 -0.04,0.46 V 47 h 4 a 0.989,0.989 0 0 1 0.394,0.081 l 0.606,0.26 V 44 h 2 v 4.2 l 4.242,1.818 6.792,0.522 6.724,-0.522 L 53,48.2 V 44 Z M 46,31.147 a 9.805,9.805 0 0 1 -8,0 v 2.645 a 4.295,4.295 0 0 0 8,0 z M 50,22 V 21.618 A 3.968,3.968 0 0 1 43.142,20 H 40.858 A 3.968,3.968 0 0 1 34,21.618 V 22 a 7.982,7.982 0 0 0 3.556,6.649 8.112,8.112 0 0 0 8.887,0 A 7.983,7.983 0 0 0 50,22 Z M 32,21 v -4 a 2,2 0 1 0 0,4 z M 49.16,15.643 48.909,14.891 A 3.883,3.883 0 0 1 48,15 a 4,4 0 0 1 -3.426,-1.938 4,4 0 0 1 -5.148,0 A 4,4 0 0 1 36,15 3.883,3.883 0 0 1 35.091,14.891 L 34.84,15.643 A 3.972,3.972 0 0 1 40.858,18 h 2.284 A 3.972,3.972 0 0 1 49.16,15.643 Z M 47,17 a 2,2 0 1 0 2,2 2,2 0 0 0 -2,-2 z m -10,0 a 2,2 0 1 0 2,2 2,2 0 0 0 -2,-2 z m 17,2 a 2,2 0 0 0 -2,-2 v 4 a 2,2 0 0 0 2,-2 z M 30,12 a 2,2 0 0 0 2,2 c 0.108,0 0.246,-0.007 0.38,-0.014 a 2.974,2.974 0 0 1 0.891,0.039 l 0.257,-0.77 A 1,1 0 0 1 34.987,12.711 1.964,1.964 0 0 0 36,13 a 2,2 0 0 0 2,-2 1,1 0 0 1 1.318,-0.948 l 0.207,0.069 a 1,1 0 0 1 0.614,0.59 1.988,1.988 0 0 0 3.722,0 1,1 0 0 1 0.614,-0.59 l 0.117,-0.039 A 1.088,1.088 0 0 1 45.539,10.205 1.02,1.02 0 0 1 46,11 a 2,2 0 0 0 2,2 1.964,1.964 0 0 0 1.013,-0.289 1,1 0 0 1 1.459,0.544 l 0.257,0.77 A 2.976,2.976 0 0 1 51.62,13.986 C 51.754,13.993 51.892,14 52,14 a 2.0001051,2.0001051 0 0 0 0.041,-4 c -0.033,0 -0.066,0.005 -0.092,0.005 A 1,1 0 0 1 50.959,8.862 2.612,2.612 0 0 0 51,8.5 2.5,2.5 0 0 0 48.5,6 a 2.469,2.469 0 0 0 -1.848,0.835 1,1 0 0 1 -1.72,-0.462 3,3 0 0 0 -5.864,0 1,1 0 0 1 -1.72,0.462 A 2.469,2.469 0 0 0 35.5,6 2.5,2.5 0 0 0 33,8.5 a 2.3,2.3 0 0 0 0.033,0.313 1.052,1.052 0 0 1 -0.229,0.823 1.023,1.023 0 0 1 -0.753,0.369 c -0.027,0 -0.06,0 -0.093,-0.005 A 2,2 0 0 0 30,12 Z M 4,37 h 20 a 7.251,7.251 0 0 1 3.528,-2 L 36,33.191 V 29.973 A 9.949,9.949 0 0 1 32.062,23 H 32 A 3.986,3.986 0 0 1 30.1,15.5 3.97,3.97 0 0 1 29.378,15 H 6 a 2,2 0 0 0 -2,2 z m 2,5 h 16 v -0.149 0 A 7.247,7.247 0 0 1 22.641,39 H 4 v 1 a 2,2 0 0 0 2,2 z m 11.387,6 H 22 V 44 H 18.721 Z M 22,52 V 50 H 14 A 0.965,0.965 0 0 0 13.306,50.287 0.978,0.978 0 0 0 13,51 1,1 0 0 0 14,52 Z M 37.137,58.472 34.9,58 H 31 A 1.006,1.006 0 0 1 30.445,57.832 L 27.7,56 H 24 v 1 a 3,3 0 0 0 3,3 h 2.9 z M 60,54 V 53.926 L 34.923,52 A 1.024,1.024 0 0 1 34.606,51.922 L 27.8,49 H 24 v 5 h 4 a 1.006,1.006 0 0 1 0.555,0.168 L 31.3,56 H 35 a 1.021,1.021 0 0 1 0.206,0.021 L 54.1,60 H 57 a 3,3 0 0 0 3,-3 z m 0,-4 v -1 h -3.794 l -5.2,2.228 L 60,51.92 Z M 41.117,24 H 39 v 2 h 2.117 c 1.342,0 2.67,-0.042 3.947,-0.124 l -0.128,-2 C 43.7,23.96 42.416,24 41.117,24 Z"
       id="path4588"
       inkscape:connector-curvature="0" />
  </g>
</svg>
