<?xml version="1.0" encoding="UTF-8" standalone="no"?>
<svg
   xmlns:dc="http://purl.org/dc/elements/1.1/"
   xmlns:cc="http://creativecommons.org/ns#"
   xmlns:rdf="http://www.w3.org/1999/02/22-rdf-syntax-ns#"
   xmlns:svg="http://www.w3.org/2000/svg"
   xmlns="http://www.w3.org/2000/svg"
   xmlns:sodipodi="http://sodipodi.sourceforge.net/DTD/sodipodi-0.dtd"
   xmlns:inkscape="http://www.inkscape.org/namespaces/inkscape"
   viewBox="0 0 60 56"
   x="0px"
   y="0px"
   version="1.1"
   id="svg1058"
   sodipodi:docname="server.svg"
   width="60"
   height="56"
   inkscape:version="0.92.5 (0.92.5+68)">
  <metadata
     id="metadata1064">
    <rdf:RDF>
      <cc:Work
         rdf:about="">
        <dc:format>image/svg+xml</dc:format>
        <dc:type
           rdf:resource="http://purl.org/dc/dcmitype/StillImage" />
        <dc:title>server-storage-mainframe-rack-hosting</dc:title>
      </cc:Work>
    </rdf:RDF>
  </metadata>
  <defs
     id="defs1062" />
  <sodipodi:namedview
     pagecolor="#ffffff"
     bordercolor="#666666"
     borderopacity="1"
     objecttolerance="10"
     gridtolerance="10"
     guidetolerance="10"
     inkscape:pageopacity="0"
     inkscape:pageshadow="2"
     inkscape:window-width="2560"
     inkscape:window-height="1375"
     id="namedview1060"
     showgrid="false"
     inkscape:zoom="14.8375"
     inkscape:cx="35.391744"
     inkscape:cy="22.695872"
     inkscape:window-x="0"
     inkscape:window-y="0"
     inkscape:window-maximized="1"
     inkscape:current-layer="svg1058" />
  <title
     id="title958">server-storage-mainframe-rack-hosting</title>
  <g
     id="g1052"
     transform="translate(-2,-4)">
    <path
       d="m 52,48 a 3,3 0 1 0 3,-3 3,3 0 0 0 -3,3 z m 4,0 a 1,1 0 1 1 -1,-1 1,1 0 0 1 1,1 z"
       id="path960"
       inkscape:connector-curvature="0" />
    <path
       d="m 47,45 a 3,3 0 1 0 3,3 3,3 0 0 0 -3,-3 z m 0,4 a 1,1 0 1 1 1,-1 1,1 0 0 1 -1,1 z"
       id="path962"
       inkscape:connector-curvature="0" />
    <path
       d="m 39,45 a 3,3 0 1 0 3,3 3,3 0 0 0 -3,-3 z m 0,4 a 1,1 0 1 1 1,-1 1,1 0 0 1 -1,1 z"
       id="path964"
       inkscape:connector-curvature="0" />
    <rect
       x="7"
       y="45"
       width="2"
       height="2"
       id="rect966" />
    <rect
       x="7"
       y="49"
       width="2"
       height="2"
       id="rect968" />
    <rect
       x="11"
       y="45"
       width="2"
       height="2"
       id="rect970" />
    <rect
       x="11"
       y="49"
       width="2"
       height="2"
       id="rect972" />
    <rect
       x="15"
       y="45"
       width="2"
       height="2"
       id="rect974" />
    <rect
       x="15"
       y="49"
       width="2"
       height="2"
       id="rect976" />
    <rect
       x="19"
       y="45"
       width="2"
       height="2"
       id="rect978" />
    <rect
       x="19"
       y="49"
       width="2"
       height="2"
       id="rect980" />
    <rect
       x="23"
       y="45"
       width="2"
       height="2"
       id="rect982" />
    <rect
       x="23"
       y="49"
       width="2"
       height="2"
       id="rect984" />
    <rect
       x="27"
       y="45"
       width="2"
       height="2"
       id="rect986" />
    <rect
       x="27"
       y="49"
       width="2"
       height="2"
       id="rect988" />
    <path
       d="m 52,30 a 3,3 0 1 0 3,-3 3,3 0 0 0 -3,3 z m 4,0 a 1,1 0 1 1 -1,-1 1,1 0 0 1 1,1 z"
       id="path990"
       inkscape:connector-curvature="0" />
    <path
       d="m 47,27 a 3,3 0 1 0 3,3 3,3 0 0 0 -3,-3 z m 0,4 a 1,1 0 1 1 1,-1 1,1 0 0 1 -1,1 z"
       id="path992"
       inkscape:connector-curvature="0" />
    <path
       d="m 39,27 a 3,3 0 1 0 3,3 3,3 0 0 0 -3,-3 z m 0,4 a 1,1 0 1 1 1,-1 1,1 0 0 1 -1,1 z"
       id="path994"
       inkscape:connector-curvature="0" />
    <rect
       x="7"
       y="27"
       width="2"
       height="2"
       id="rect996" />
    <rect
       x="7"
       y="31"
       width="2"
       height="2"
       id="rect998" />
    <rect
       x="11"
       y="27"
       width="2"
       height="2"
       id="rect1000" />
    <rect
       x="11"
       y="31"
       width="2"
       height="2"
       id="rect1002" />
    <rect
       x="15"
       y="27"
       width="2"
       height="2"
       id="rect1004" />
    <rect
       x="15"
       y="31"
       width="2"
       height="2"
       id="rect1006" />
    <rect
       x="19"
       y="27"
       width="2"
       height="2"
       id="rect1008" />
    <rect
       x="19"
       y="31"
       width="2"
       height="2"
       id="rect1010" />
    <rect
       x="23"
       y="27"
       width="2"
       height="2"
       id="rect1012" />
    <rect
       x="23"
       y="31"
       width="2"
       height="2"
       id="rect1014" />
    <rect
       x="27"
       y="27"
       width="2"
       height="2"
       id="rect1016" />
    <rect
       x="27"
       y="31"
       width="2"
       height="2"
       id="rect1018" />
    <path
       d="M 58,4 H 6 A 4,4 0 0 0 2,8 v 8 a 4,4 0 0 0 4,4 h 1 v 2 H 6 a 4,4 0 0 0 -4,4 v 8 a 4,4 0 0 0 4,4 h 1 v 2 H 6 a 4,4 0 0 0 -4,4 v 8 a 4,4 0 0 0 4,4 h 1 v 3 a 1,1 0 0 0 1,1 h 6 a 1,1 0 0 0 1,-1 v -3 h 34 v 3 a 1,1 0 0 0 1,1 h 6 a 1,1 0 0 0 1,-1 v -3 h 1 a 4,4 0 0 0 4,-4 v -8 a 4,4 0 0 0 -4,-4 h -1 v -2 h 1 a 4,4 0 0 0 4,-4 v -8 a 4,4 0 0 0 -4,-4 h -1 v -2 h 1 a 4,4 0 0 0 4,-4 V 8 A 4,4 0 0 0 58,4 Z M 9,20 h 4 v 2 H 9 Z m 40,0 v 2 H 15 V 20 Z M 9,38 h 4 v 2 H 9 Z m 40,0 v 2 H 15 V 38 Z M 13,58 H 9 v -2 h 4 z m 42,0 h -4 v -2 h 4 z m 5,-14 v 8 a 2,2 0 0 1 -2,2 H 6 A 2,2 0 0 1 4,52 v -8 a 2,2 0 0 1 2,-2 h 52 a 2,2 0 0 1 2,2 z m -5,-4 h -4 v -2 h 4 z m 5,-14 v 8 a 2,2 0 0 1 -2,2 H 6 A 2,2 0 0 1 4,34 v -8 a 2,2 0 0 1 2,-2 h 52 a 2,2 0 0 1 2,2 z m -5,-4 h -4 v -2 h 4 z m 5,-6 a 2,2 0 0 1 -2,2 H 6 A 2,2 0 0 1 4,16 V 8 A 2,2 0 0 1 6,6 h 52 a 2,2 0 0 1 2,2 z"
       id="path1020"
       inkscape:connector-curvature="0" />
    <path
       d="m 55,9 a 3,3 0 1 0 3,3 3,3 0 0 0 -3,-3 z m 0,4 a 1,1 0 1 1 1,-1 1,1 0 0 1 -1,1 z"
       id="path1022"
       inkscape:connector-curvature="0" />
    <path
       d="m 47,9 a 3,3 0 1 0 3,3 3,3 0 0 0 -3,-3 z m 0,4 a 1,1 0 1 1 1,-1 1,1 0 0 1 -1,1 z"
       id="path1024"
       inkscape:connector-curvature="0" />
    <path
       d="m 39,9 a 3,3 0 1 0 3,3 3,3 0 0 0 -3,-3 z m 0,4 a 1,1 0 1 1 1,-1 1,1 0 0 1 -1,1 z"
       id="path1026"
       inkscape:connector-curvature="0" />
    <rect
       x="7"
       y="9"
       width="2"
       height="2"
       id="rect1028" />
    <rect
       x="7"
       y="13"
       width="2"
       height="2"
       id="rect1030" />
    <rect
       x="11"
       y="9"
       width="2"
       height="2"
       id="rect1032" />
    <rect
       x="11"
       y="13"
       width="2"
       height="2"
       id="rect1034" />
    <rect
       x="15"
       y="9"
       width="2"
       height="2"
       id="rect1036" />
    <rect
       x="15"
       y="13"
       width="2"
       height="2"
       id="rect1038" />
    <rect
       x="19"
       y="9"
       width="2"
       height="2"
       id="rect1040" />
    <rect
       x="19"
       y="13"
       width="2"
       height="2"
       id="rect1042" />
    <rect
       x="23"
       y="9"
       width="2"
       height="2"
       id="rect1044" />
    <rect
       x="23"
       y="13"
       width="2"
       height="2"
       id="rect1046" />
    <rect
       x="27"
       y="9"
       width="2"
       height="2"
       id="rect1048" />
    <rect
       x="27"
       y="13"
       width="2"
       height="2"
       id="rect1050" />
  </g>
</svg>
