<?xml version="1.0" encoding="UTF-8" standalone="no"?>
<svg
   xmlns:dc="http://purl.org/dc/elements/1.1/"
   xmlns:cc="http://creativecommons.org/ns#"
   xmlns:rdf="http://www.w3.org/1999/02/22-rdf-syntax-ns#"
   xmlns:svg="http://www.w3.org/2000/svg"
   xmlns="http://www.w3.org/2000/svg"
   xmlns:sodipodi="http://sodipodi.sourceforge.net/DTD/sodipodi-0.dtd"
   xmlns:inkscape="http://www.inkscape.org/namespaces/inkscape"
   version="1.1"
   id="Ebene_1"
   width="200"
   height="200"
   viewBox="0 0 199.99999 199.99999"
   overflow="visible"
   enable-background="new 0 0 283.46 283.46"
   xml:space="preserve"
   sodipodi:docname="logo.svg"
   style="overflow:visible"
   inkscape:version="0.92.5 (2060ec1f9f, 2020-04-08)"><metadata
   id="metadata3797"><rdf:RDF><cc:Work
       rdf:about=""><dc:format>image/svg+xml</dc:format><dc:type
         rdf:resource="http://purl.org/dc/dcmitype/StillImage" /><dc:title /></cc:Work></rdf:RDF></metadata><defs
   id="defs3795" /><sodipodi:namedview
   pagecolor="#ffffff"
   bordercolor="#666666"
   borderopacity="1"
   objecttolerance="10"
   gridtolerance="10"
   guidetolerance="10"
   inkscape:pageopacity="0"
   inkscape:pageshadow="2"
   inkscape:window-width="1920"
   inkscape:window-height="1024"
   id="namedview3793"
   showgrid="false"
   inkscape:zoom="1.7354414"
   inkscape:cx="360.80677"
   inkscape:cy="92.490901"
   inkscape:window-x="0"
   inkscape:window-y="1"
   inkscape:window-maximized="1"
   inkscape:current-layer="Ebene_1"
   fit-margin-top="0"
   fit-margin-left="0"
   fit-margin-right="0"
   fit-margin-bottom="0"
   inkscape:document-rotation="0"
   scale-x="1"
   viewbox-width="466.04498"
   viewbox-height="97.787" />

<circle
   id="path13"
   cx="100"
   cy="100"
   style="opacity:0.8;fill:#ffffff;stroke-width:0.7749843"
   r="100" /><g
   id="g3790"
   transform="translate(290.96194,-46.299102)">
	<g
   id="g3764">
		
		
		
		
	</g>
	
<g
   id="g3813"><path
   style="overflow:visible;fill:#da3b01;fill-opacity:1;stroke-width:1.81210005"
   inkscape:connector-curvature="0"
   id="path3756"
   d="m -232.90923,106.57758 c 1.34459,-2.15277 1.47867,-11.838421 2.01868,-19.64131 0.5382,-7.802885 5.64286,-10.729419 10.49385,-10.627942 6.45648,0.134096 13.453,11.524934 13.453,11.524934 0,0 -1.88458,-9.326862 -6.99652,-14.708787 -4.84915,-5.104673 -14.70876,-3.856139 -19.9113,1.569275 -5.0032,5.218837 -3.49734,15.605774 -4.70963,25.82962 -0.84805,7.16139 -3.92681,16.29436 -5.00502,19.33867 2.6493,-6.60688 10.65694,-13.28265 10.65694,-13.28446 z" /><path
   style="overflow:visible;fill:#da3b01;fill-opacity:1;stroke-width:1.81210005"
   inkscape:connector-curvature="0"
   id="path3758"
   d="m -168.60338,73.124475 c -5.11192,5.381925 -6.99468,14.708787 -6.99468,14.708787 0,0 6.99468,-11.390837 13.453,-11.524934 4.84916,-0.101486 9.95565,2.825057 10.49385,10.627942 0.53818,7.802889 0.67228,17.49035 2.01686,19.64131 0,0 8.00584,6.67758 10.65512,13.28629 -1.07819,-3.04614 -4.15694,-12.1773 -5.00501,-19.33869 -1.21048,-10.225656 0.29356,-20.612593 -4.70782,-25.829616 -5.20254,-5.425417 -15.06033,-6.675762 -19.91132,-1.571089 z" /><path
   style="overflow:visible;fill:#da3b01;fill-opacity:1;stroke-width:1.81210005"
   inkscape:connector-curvature="0"
   id="path3760"
   d="m -135.41121,139.17719 c -0.009,-0.28088 -0.0289,-0.55269 -0.0399,-0.82814 -0.65416,0.0599 -1.30833,0.12144 -1.9625,0.17941 -0.11418,-1.29201 -0.22651,-2.58405 -0.34067,-3.87789 0.65597,-0.058 1.31376,-0.1196 1.96975,-0.18122 -4.30373,-34.627338 -41.44627,-35.962848 -41.44627,-35.962848 -1.46054,-16.950343 8.0729,-27.982384 8.0729,-27.982384 l -21.91007,0.268191 -22.06226,-0.268191 c 0,0 9.86505,11.211437 8.07109,27.982384 0,0 -37.18422,1.33551 -41.45353,36.019028 5.38194,0.48566 10.76749,0.90605 16.15847,1.24853 -0.34792,5.46892 -0.69585,10.93603 -1.04559,16.40493 -1.2902,-0.0816 -2.57861,-0.17035 -3.867,-0.25915 0.30806,-4.41788 0.61792,-8.83758 0.92598,-13.25367 -3.70393,-0.25912 -7.40424,-0.55087 -11.10453,-0.87704 -0.33161,3.7601 -0.66323,7.52202 -0.99485,11.28391 0.33162,2.89029 0.839,5.93644 1.55842,9.1692 0,0 8.18343,37.24402 46.75026,73.11808 0,0 -11.43614,2.79062 5.85125,3.52997 l 1.48049,0.008 c 17.60632,-0.65961 4.93252,-3.56077 4.93252,-3.56077 43.40877,-39.46201 48.45727,-73.09813 48.45727,-73.09813 0.18302,-0.81907 0.34792,-1.62365 0.50557,-2.41917 -4.77125,0.41498 -9.54613,0.77196 -14.32281,1.0764 -0.34792,-5.46891 -0.69584,-10.93601 -1.04557,-16.40491 1.26665,-0.0816 2.53148,-0.16491 3.79633,-0.25369 0.30805,4.4179 0.61793,8.83577 0.92599,13.25186 3.74016,-0.26095 7.47851,-0.55633 11.21505,-0.88431 0.0362,-0.22471 0.0671,-0.44397 0.0996,-0.66866 -0.36967,-4.19684 -0.73933,-8.39544 -1.109,-12.59406 0.64692,-0.0542 1.29021,-0.11418 1.9335,-0.16672 z m -88.62057,18.16082 c -6.45649,-0.33522 -12.91118,-0.76471 -19.35861,-1.29565 0.44941,-5.45983 0.8988,-10.9197 1.3482,-16.38134 1.26484,0.10318 2.52967,0.20476 3.79453,0.3008 -0.33525,4.41609 -0.67229,8.83035 -1.00753,13.24824 3.79091,0.2863 7.58543,0.54181 11.37996,0.76108 0.25551,-4.42695 0.51283,-8.85208 0.76833,-13.27904 1.30833,0.0816 2.61486,0.15946 3.9232,0.23014 -0.2827,5.47072 -0.56539,10.94324 -0.84808,16.41577 z m 0.88975,-17.24752 c -1.30652,-0.0671 -2.61123,-0.13953 -3.91776,-0.21563 0.0761,-1.29385 0.15041,-2.59131 0.22652,-3.88514 1.29746,0.0744 2.59493,0.14677 3.8924,0.212 -0.0669,1.29566 -0.13411,2.5913 -0.20116,3.88877 z m 6.40214,17.58095 c -1.34277,-0.0543 -2.68553,-0.11233 -4.03011,-0.17579 0.06,-1.29562 0.11959,-2.59129 0.1812,-3.88694 1.33553,0.0598 2.66923,0.11775 4.00474,0.17215 -0.0526,1.29746 -0.1034,2.59311 -0.15583,3.89058 z m 0.18844,-4.70964 c -1.33188,-0.0562 -2.66558,-0.11959 -3.99928,-0.18846 0.2537,-5.47434 0.50739,-10.94688 0.75927,-16.4194 6.24266,0.28812 12.49077,0.48202 18.73707,0.58169 -0.087,5.47795 -0.17215,10.95774 -0.25733,16.43389 -1.29202,-0.0198 -2.58404,-0.0436 -3.87607,-0.0725 0.0959,-4.42695 0.1939,-8.85571 0.28994,-13.28267 -3.70935,-0.0816 -7.41872,-0.19388 -11.12628,-0.34247 -0.17395,4.43056 -0.35154,8.86114 -0.52732,13.2899 z m 22.84873,5.20978 c -6.46374,-0.0235 -12.9275,-0.14498 -19.38942,-0.36606 0.18664,-5.47434 0.37329,-10.9523 0.56173,-16.42664 1.26668,0.0416 2.53333,0.0816 3.80179,0.11774 -0.12316,4.42514 -0.24825,8.85392 -0.37147,13.28085 3.79815,0.10692 7.59812,0.1776 11.39808,0.21565 0.0436,-4.43421 0.087,-8.86839 0.13227,-13.3026 1.31016,0.02 2.61849,0.0344 3.92682,0.0417 -0.0218,5.48159 -0.0416,10.96137 -0.0599,16.43933 z m 0.0599,-17.27108 c -1.30652,-0.002 -2.61485,-0.0147 -3.92138,-0.0272 0.0132,-1.29746 0.0253,-2.59492 0.0381,-3.89239 1.29928,0.0132 2.59854,0.0218 3.89602,0.0272 -0.002,1.29745 -0.008,2.59492 -0.0132,3.89237 z m 29.8869,-4.51757 c 0.0598,1.29746 0.11778,2.59311 0.17577,3.88877 -1.30651,0.0599 -2.61304,0.11418 -3.91955,0.1649 -0.0508,-1.29566 -0.0995,-2.59312 -0.1504,-3.88878 1.29745,-0.0508 2.59672,-0.10505 3.89418,-0.16489 z m -26.16122,0.62518 c 6.2481,-0.0147 12.4962,-0.12685 18.7425,-0.33524 0.18122,5.47434 0.36242,10.95231 0.54544,16.42847 -1.29021,0.0416 -2.58404,0.0816 -3.87427,0.11603 -0.11959,-4.42695 -0.23919,-8.85573 -0.35878,-13.28085 -3.70936,0.10153 -7.41873,0.16851 -11.1299,0.19933 0.0399,4.4342 0.0779,8.86657 0.1178,13.30078 -1.33371,0.007 -2.66741,0.0119 -4.00293,0.007 -0.0132,-5.47615 -0.0253,-10.95413 -0.0398,-16.43572 z m 0.0542,21.16527 c -0.002,-1.29745 -0.007,-2.59672 -0.011,-3.89236 1.33551,-0.002 2.67283,-0.0119 4.00834,-0.0235 0.011,1.29925 0.0234,2.59491 0.0344,3.89236 -1.34457,0.0132 -2.68733,0.0198 -4.03191,0.0236 z m 7.67966,-0.0652 c -0.0816,-5.47795 -0.16127,-10.95773 -0.24101,-16.4357 1.26847,-0.0183 2.53512,-0.0381 3.80178,-0.0671 0.0924,4.42696 0.18483,8.85572 0.27724,13.28267 3.79997,-0.0779 7.59813,-0.19026 11.39628,-0.34068 -0.17215,-4.43057 -0.3443,-8.86115 -0.51826,-13.29173 1.30833,-0.0453 2.61667,-0.0959 3.925,-0.1504 0.24825,5.47435 0.4947,10.9487 0.74477,16.42303 -6.46012,0.29174 -12.92206,0.48383 -19.3858,0.57987 z m 23.28724,-0.77014 c -0.067,-1.29745 -0.1341,-2.5931 -0.19933,-3.88875 1.33551,-0.0689 2.66922,-0.14134 4.00292,-0.21925 0.0761,1.29564 0.15041,2.59129 0.22652,3.88693 -1.34458,0.0779 -2.68915,0.15222 -4.03011,0.22107 z m 15.10563,-5.69903 c -0.33523,-4.41788 -0.67229,-8.83216 -1.00751,-13.24825 -3.70031,0.2809 -7.40605,0.52916 -11.11178,0.74479 0.25732,4.42695 0.51463,8.8539 0.76833,13.27902 -1.33191,0.0707 -2.6656,0.13954 -3.99931,0.20115 -0.28086,-5.47252 -0.56355,-10.94324 -0.84442,-16.41395 6.24266,-0.32075 12.47989,-0.73935 18.71169,-1.25217 0.4494,5.46166 0.89881,10.9197 1.3482,16.38135 -1.28839,0.10505 -2.5768,0.20839 -3.8652,0.30806 z" /><path
   style="overflow:visible;fill:#da3b01;fill-opacity:1;stroke-width:1.81210005"
   inkscape:connector-curvature="0"
   id="path3762"
   d="m -214.55814,68.820747 c 0,0 11.78226,0 24.02479,0 0.0183,0 0.0381,0 0.0562,0 12.24251,0 24.02477,0 24.02477,0 0,0 10.58263,-0.672288 10.58263,-11.120832 h -34.60923 -0.0561 -34.60921 c 0.002,10.448544 10.58625,11.120832 10.58625,11.120832 z" />
</g></g></svg>