<?xml version="1.0" encoding="UTF-8" standalone="no"?>
<svg
   xmlns:dc="http://purl.org/dc/elements/1.1/"
   xmlns:cc="http://creativecommons.org/ns#"
   xmlns:rdf="http://www.w3.org/1999/02/22-rdf-syntax-ns#"
   xmlns:svg="http://www.w3.org/2000/svg"
   xmlns="http://www.w3.org/2000/svg"
   xmlns:sodipodi="http://sodipodi.sourceforge.net/DTD/sodipodi-0.dtd"
   xmlns:inkscape="http://www.inkscape.org/namespaces/inkscape"
   version="1.1"
   id="Ebene_1"
   width="854.51831"
   height="177.19838"
   viewBox="0 0 854.51831 177.19837"
   overflow="visible"
   enable-background="new 0 0 283.46 283.46"
   xml:space="preserve"
   sodipodi:docname="conny_logo.svg"
   style="overflow:visible"
   inkscape:version="1.0 (1.0+r73+1)"><metadata
   id="metadata3797"><rdf:RDF><cc:Work
       rdf:about=""><dc:format>image/svg+xml</dc:format><dc:type
         rdf:resource="http://purl.org/dc/dcmitype/StillImage" /><dc:title /></cc:Work></rdf:RDF></metadata><defs
   id="defs3795" /><sodipodi:namedview
   pagecolor="#ffffff"
   bordercolor="#666666"
   borderopacity="1"
   objecttolerance="10"
   gridtolerance="10"
   guidetolerance="10"
   inkscape:pageopacity="0"
   inkscape:pageshadow="2"
   inkscape:window-width="3840"
   inkscape:window-height="2096"
   id="namedview3793"
   showgrid="false"
   inkscape:zoom="1.7354414"
   inkscape:cx="421.31012"
   inkscape:cy="81.542679"
   inkscape:window-x="0"
   inkscape:window-y="0"
   inkscape:window-maximized="1"
   inkscape:current-layer="g3813"
   fit-margin-top="0"
   fit-margin-left="0"
   fit-margin-right="0"
   fit-margin-bottom="0"
   inkscape:document-rotation="0"
   scale-x="1"
   viewbox-width="466.04498"
   viewbox-height="97.787" />
<g
   id="g3790"
   transform="translate(246.51267,-57.699915)">
	<g
   id="g3764">
		
		
		
		
	</g>
	
<g
   id="g3813"><path
   style="overflow:visible;fill:#da3b01;stroke-width:1.8121;fill-opacity:1"
   inkscape:connector-curvature="0"
   id="path3756"
   d="m -232.90923,106.57758 c 1.34459,-2.15277 1.47867,-11.838421 2.01868,-19.64131 0.5382,-7.802885 5.64286,-10.729419 10.49385,-10.627942 6.45648,0.134096 13.453,11.524934 13.453,11.524934 0,0 -1.88458,-9.326862 -6.99652,-14.708787 -4.84915,-5.104673 -14.70876,-3.856139 -19.9113,1.569275 -5.0032,5.218837 -3.49734,15.605774 -4.70963,25.82962 -0.84805,7.16139 -3.92681,16.29436 -5.00502,19.33867 2.6493,-6.60688 10.65694,-13.28265 10.65694,-13.28446 z" /><path
   style="overflow:visible;fill:#da3b01;stroke-width:1.8121;fill-opacity:1"
   inkscape:connector-curvature="0"
   id="path3758"
   d="m -168.60338,73.124475 c -5.11192,5.381925 -6.99468,14.708787 -6.99468,14.708787 0,0 6.99468,-11.390837 13.453,-11.524934 4.84916,-0.101486 9.95565,2.825057 10.49385,10.627942 0.53818,7.802889 0.67228,17.49035 2.01686,19.64131 0,0 8.00584,6.67758 10.65512,13.28629 -1.07819,-3.04614 -4.15694,-12.1773 -5.00501,-19.33869 -1.21048,-10.225656 0.29356,-20.612593 -4.70782,-25.829616 -5.20254,-5.425417 -15.06033,-6.675762 -19.91132,-1.571089 z" /><path
   style="overflow:visible;fill:#da3b01;stroke-width:1.8121;fill-opacity:1"
   inkscape:connector-curvature="0"
   id="path3760"
   d="m -135.41121,139.17719 c -0.009,-0.28088 -0.0289,-0.55269 -0.0399,-0.82814 -0.65416,0.0599 -1.30833,0.12144 -1.9625,0.17941 -0.11418,-1.29201 -0.22651,-2.58405 -0.34067,-3.87789 0.65597,-0.058 1.31376,-0.1196 1.96975,-0.18122 -4.30373,-34.627338 -41.44627,-35.962848 -41.44627,-35.962848 -1.46054,-16.950343 8.0729,-27.982384 8.0729,-27.982384 l -21.91007,0.268191 -22.06226,-0.268191 c 0,0 9.86505,11.211437 8.07109,27.982384 0,0 -37.18422,1.33551 -41.45353,36.019028 5.38194,0.48566 10.76749,0.90605 16.15847,1.24853 -0.34792,5.46892 -0.69585,10.93603 -1.04559,16.40493 -1.2902,-0.0816 -2.57861,-0.17035 -3.867,-0.25915 0.30806,-4.41788 0.61792,-8.83758 0.92598,-13.25367 -3.70393,-0.25912 -7.40424,-0.55087 -11.10453,-0.87704 -0.33161,3.7601 -0.66323,7.52202 -0.99485,11.28391 0.33162,2.89029 0.839,5.93644 1.55842,9.1692 0,0 8.18343,37.24402 46.75026,73.11808 0,0 -11.43614,2.79062 5.85125,3.52997 l 1.48049,0.008 c 17.60632,-0.65961 4.93252,-3.56077 4.93252,-3.56077 43.40877,-39.46201 48.45727,-73.09813 48.45727,-73.09813 0.18302,-0.81907 0.34792,-1.62365 0.50557,-2.41917 -4.77125,0.41498 -9.54613,0.77196 -14.32281,1.0764 -0.34792,-5.46891 -0.69584,-10.93601 -1.04557,-16.40491 1.26665,-0.0816 2.53148,-0.16491 3.79633,-0.25369 0.30805,4.4179 0.61793,8.83577 0.92599,13.25186 3.74016,-0.26095 7.47851,-0.55633 11.21505,-0.88431 0.0362,-0.22471 0.0671,-0.44397 0.0996,-0.66866 -0.36967,-4.19684 -0.73933,-8.39544 -1.109,-12.59406 0.64692,-0.0542 1.29021,-0.11418 1.9335,-0.16672 z m -88.62057,18.16082 c -6.45649,-0.33522 -12.91118,-0.76471 -19.35861,-1.29565 0.44941,-5.45983 0.8988,-10.9197 1.3482,-16.38134 1.26484,0.10318 2.52967,0.20476 3.79453,0.3008 -0.33525,4.41609 -0.67229,8.83035 -1.00753,13.24824 3.79091,0.2863 7.58543,0.54181 11.37996,0.76108 0.25551,-4.42695 0.51283,-8.85208 0.76833,-13.27904 1.30833,0.0816 2.61486,0.15946 3.9232,0.23014 -0.2827,5.47072 -0.56539,10.94324 -0.84808,16.41577 z m 0.88975,-17.24752 c -1.30652,-0.0671 -2.61123,-0.13953 -3.91776,-0.21563 0.0761,-1.29385 0.15041,-2.59131 0.22652,-3.88514 1.29746,0.0744 2.59493,0.14677 3.8924,0.212 -0.0669,1.29566 -0.13411,2.5913 -0.20116,3.88877 z m 6.40214,17.58095 c -1.34277,-0.0543 -2.68553,-0.11233 -4.03011,-0.17579 0.06,-1.29562 0.11959,-2.59129 0.1812,-3.88694 1.33553,0.0598 2.66923,0.11775 4.00474,0.17215 -0.0526,1.29746 -0.1034,2.59311 -0.15583,3.89058 z m 0.18844,-4.70964 c -1.33188,-0.0562 -2.66558,-0.11959 -3.99928,-0.18846 0.2537,-5.47434 0.50739,-10.94688 0.75927,-16.4194 6.24266,0.28812 12.49077,0.48202 18.73707,0.58169 -0.087,5.47795 -0.17215,10.95774 -0.25733,16.43389 -1.29202,-0.0198 -2.58404,-0.0436 -3.87607,-0.0725 0.0959,-4.42695 0.1939,-8.85571 0.28994,-13.28267 -3.70935,-0.0816 -7.41872,-0.19388 -11.12628,-0.34247 -0.17395,4.43056 -0.35154,8.86114 -0.52732,13.2899 z m 22.84873,5.20978 c -6.46374,-0.0235 -12.9275,-0.14498 -19.38942,-0.36606 0.18664,-5.47434 0.37329,-10.9523 0.56173,-16.42664 1.26668,0.0416 2.53333,0.0816 3.80179,0.11774 -0.12316,4.42514 -0.24825,8.85392 -0.37147,13.28085 3.79815,0.10692 7.59812,0.1776 11.39808,0.21565 0.0436,-4.43421 0.087,-8.86839 0.13227,-13.3026 1.31016,0.02 2.61849,0.0344 3.92682,0.0417 -0.0218,5.48159 -0.0416,10.96137 -0.0599,16.43933 z m 0.0599,-17.27108 c -1.30652,-0.002 -2.61485,-0.0147 -3.92138,-0.0272 0.0132,-1.29746 0.0253,-2.59492 0.0381,-3.89239 1.29928,0.0132 2.59854,0.0218 3.89602,0.0272 -0.002,1.29745 -0.008,2.59492 -0.0132,3.89237 z m 29.8869,-4.51757 c 0.0598,1.29746 0.11778,2.59311 0.17577,3.88877 -1.30651,0.0599 -2.61304,0.11418 -3.91955,0.1649 -0.0508,-1.29566 -0.0995,-2.59312 -0.1504,-3.88878 1.29745,-0.0508 2.59672,-0.10505 3.89418,-0.16489 z m -26.16122,0.62518 c 6.2481,-0.0147 12.4962,-0.12685 18.7425,-0.33524 0.18122,5.47434 0.36242,10.95231 0.54544,16.42847 -1.29021,0.0416 -2.58404,0.0816 -3.87427,0.11603 -0.11959,-4.42695 -0.23919,-8.85573 -0.35878,-13.28085 -3.70936,0.10153 -7.41873,0.16851 -11.1299,0.19933 0.0399,4.4342 0.0779,8.86657 0.1178,13.30078 -1.33371,0.007 -2.66741,0.0119 -4.00293,0.007 -0.0132,-5.47615 -0.0253,-10.95413 -0.0398,-16.43572 z m 0.0542,21.16527 c -0.002,-1.29745 -0.007,-2.59672 -0.011,-3.89236 1.33551,-0.002 2.67283,-0.0119 4.00834,-0.0235 0.011,1.29925 0.0234,2.59491 0.0344,3.89236 -1.34457,0.0132 -2.68733,0.0198 -4.03191,0.0236 z m 7.67966,-0.0652 c -0.0816,-5.47795 -0.16127,-10.95773 -0.24101,-16.4357 1.26847,-0.0183 2.53512,-0.0381 3.80178,-0.0671 0.0924,4.42696 0.18483,8.85572 0.27724,13.28267 3.79997,-0.0779 7.59813,-0.19026 11.39628,-0.34068 -0.17215,-4.43057 -0.3443,-8.86115 -0.51826,-13.29173 1.30833,-0.0453 2.61667,-0.0959 3.925,-0.1504 0.24825,5.47435 0.4947,10.9487 0.74477,16.42303 -6.46012,0.29174 -12.92206,0.48383 -19.3858,0.57987 z m 23.28724,-0.77014 c -0.067,-1.29745 -0.1341,-2.5931 -0.19933,-3.88875 1.33551,-0.0689 2.66922,-0.14134 4.00292,-0.21925 0.0761,1.29564 0.15041,2.59129 0.22652,3.88693 -1.34458,0.0779 -2.68915,0.15222 -4.03011,0.22107 z m 15.10563,-5.69903 c -0.33523,-4.41788 -0.67229,-8.83216 -1.00751,-13.24825 -3.70031,0.2809 -7.40605,0.52916 -11.11178,0.74479 0.25732,4.42695 0.51463,8.8539 0.76833,13.27902 -1.33191,0.0707 -2.6656,0.13954 -3.99931,0.20115 -0.28086,-5.47252 -0.56355,-10.94324 -0.84442,-16.41395 6.24266,-0.32075 12.47989,-0.73935 18.71169,-1.25217 0.4494,5.46166 0.89881,10.9197 1.3482,16.38135 -1.28839,0.10505 -2.5768,0.20839 -3.8652,0.30806 z" /><path
   style="overflow:visible;fill:#da3b01;stroke-width:1.8121;fill-opacity:1"
   inkscape:connector-curvature="0"
   id="path3762"
   d="m -214.55814,68.820747 c 0,0 11.78226,0 24.02479,0 0.0183,0 0.0381,0 0.0562,0 12.24251,0 24.02477,0 24.02477,0 0,0 10.58263,-0.672288 10.58263,-11.120832 h -34.60923 -0.0561 -34.60921 c 0.002,10.448544 10.58625,11.120832 10.58625,11.120832 z" /><g
   aria-label="Connaisseur"
   style="font-style:normal;font-variant:normal;font-weight:normal;font-stretch:normal;font-size:40px;line-height:1.25;font-family:'Bell MT';-inkscape-font-specification:'Bell MT';letter-spacing:0px;word-spacing:0px;fill:#000000;fill-opacity:1;stroke:none"
   id="text3759"
   transform="matrix(1.812096,0,0,1.812096,-132.72302,-118.80912)"><path
     d="m 46.095955,162.99738 -0.192,-4.752 -0.336,-0.384 h -0.48 l -0.144,0.096 q -1.056,1.536 -2.448,2.784 -1.344,1.248 -2.976,2.112 h 0.048 q -2.352,1.104 -4.944,1.536 -2.544,0.384 -5.088,0.048 -2.496,-0.384 -4.8,-1.536 -2.304,-1.152 -4.128,-3.12 h 0.048 q -2.4,-2.4 -3.552,-5.376 -1.104,-2.976 -1.056,-6.288 0,-3.504 1.152,-6.48 1.2,-3.024 3.312,-5.232 2.112,-2.208 5.04,-3.456 2.976,-1.248 6.528,-1.248 3.744,-0.048 6.96,1.392 3.216,1.44 5.472,4.464 l 0.48,0.192 0.384,-0.24 q 0.048,-0.048 0.096,-0.72 0.048,-0.672 0.096,-1.488 0.048,-0.816 0.048,-1.536 0.048,-0.72 0.048,-0.96 l -0.192,-0.336 q -1.584,-1.152 -3.168,-1.824 -1.536,-0.72 -3.168,-1.104 -1.632,-0.384 -3.36,-0.48 -1.68,-0.096 -3.6,-0.096 -4.512,0.048 -8.352,1.296 -3.792,1.2 -6.624,3.6 -2.784,2.352 -4.368,5.952 -1.536,3.552 -1.488,8.304 0.048,4.8 1.584,8.4 1.584,3.552 4.32,5.952 2.784,2.352 6.576,3.552 3.84,1.152 8.4,1.2 1.968,0 3.744,-0.096 1.824,-0.144 3.504,-0.528 1.68,-0.432 3.264,-1.2 1.632,-0.768 3.216,-2.064 z"
     style="font-style:normal;font-variant:normal;font-weight:normal;font-stretch:normal;font-size:48px;font-family:CapitalisTypOasis;-inkscape-font-specification:CapitalisTypOasis"
     id="path36" /><path
     d="m 82.202455,132.75738 q -2.688,-2.304 -6.144,-3.264 -3.408,-0.96 -6.912,-0.576 -4.224,0.48 -7.776,2.16 -3.552,1.68 -6.288,5.088 -2.352,2.976 -3.36,6.72 -0.96,3.744 -0.624,7.536 0.384,3.744 2.064,7.2 1.68,3.456 4.608,5.904 2.928,2.448 6.672,3.36 3.792,0.912 7.536,0.432 3.792,-0.48 7.2,-2.304 3.408,-1.824 5.712,-4.848 2.304,-3.024 3.264,-6.768 0.96,-3.744 0.576,-7.488 -0.336,-3.792 -2.016,-7.248 -1.632,-3.456 -4.56,-5.904 z m 0.624,25.632 q -1.92,2.4 -4.752,3.648 -2.832,1.2 -5.904,1.344 -3.072,0.096 -6.096,-0.816 -2.976,-0.912 -5.232,-2.784 h 0.048 q -2.256,-1.776 -3.792,-4.56 -1.488,-2.832 -2.064,-5.904 -0.528,-3.12 0,-6.192 0.528,-3.072 2.352,-5.472 1.872,-2.448 4.656,-3.648 2.832,-1.248 5.904,-1.344 3.072,-0.144 6.048,0.816 3.024,0.912 5.28,2.784 2.16,1.824 3.696,4.608 1.536,2.784 2.112,5.904 0.624,3.12 0.096,6.192 -0.48,3.072 -2.352,5.424 z"
     style="font-style:normal;font-variant:normal;font-weight:normal;font-stretch:normal;font-size:48px;font-family:CapitalisTypOasis;-inkscape-font-specification:CapitalisTypOasis"
     id="path38" /><path
     d="m 129.53498,128.86938 q -2.352,0.096 -4.656,0.192 -2.304,0.048 -4.656,0.144 l -0.432,0.24 0.096,0.48 0.288,0.096 q 0.72,-0.048 1.248,0.24 0.576,0.24 0.96,0.72 0.384,0.48 0.576,1.104 0.24,0.576 0.24,1.2 0.048,2.016 -0.096,4.032 -0.096,1.968 -0.144,3.984 -0.096,4.272 -0.096,8.496 0.048,4.176 0.144,8.448 -4.512,-4.992 -8.976,-10.176 -4.464,-5.232 -8.976,-10.176 -1.536,-1.68 -3.024,-3.312 -1.488,-1.632 -3.023996,-3.312 -0.624,-0.672 -1.296,-1.44 -0.624,-0.768 -1.296,-1.344 -0.192,-0.192 -0.528,-0.096 -0.336,0.048 -0.384,0.384 -0.048,0.528 0,1.104 0.096,0.528 0.096,1.056 0.096,1.68 0.144,3.312 0.048,1.584 0.096,3.216 0.096,4.368 0.096,8.976 0.048,4.56 -0.048,8.928 -0.048,1.92 -0.048,3.84 0.048,1.92 -0.144,3.792 -0.144,1.392 -1.056,2.352 -0.864,0.912 -2.256,1.056 l -0.432,0.24 q 0.048,0.144 0.096,0.384 0.096,0.192 0.288,0.24 2.304,-0.096 4.608,-0.192 2.352,-0.096 4.655996,-0.096 l 0.432,-0.288 v -0.48 l -0.384,-0.096 q -1.392,-0.384 -2.159996,-1.008 -0.768,-0.672 -0.864,-2.208 -0.096,-1.824 0,-3.936 0.144,-2.16 0.192,-4.08 0.048,-4.224 0,-8.688 0,-4.464 -0.096,-8.688 4.511996,5.04 8.975996,10.272 4.464,5.232 8.976,10.224 1.536,1.68 3.024,3.312 1.488,1.632 3.024,3.264 0.624,0.672 1.296,1.488 0.672,0.816 1.344,1.344 0.192,0.144 0.528,0.096 0.384,0 0.432,-0.384 0.048,-0.528 -0.048,-1.056 -0.048,-0.576 -0.096,-1.152 -0.096,-1.632 -0.144,-3.264 -0.048,-1.632 -0.096,-3.264 -0.144,-4.416 -0.144,-8.784 0,-4.368 0.096,-8.784 0.048,-1.872 0.048,-3.792 0,-1.968 0.192,-3.84 0.144,-1.392 1.008,-2.4 0.912,-1.008 2.304,-1.104 z"
     style="font-style:normal;font-variant:normal;font-weight:normal;font-stretch:normal;font-size:48px;font-family:CapitalisTypOasis;-inkscape-font-specification:CapitalisTypOasis"
     id="path40" /><path
     d="m 171.28669,128.86938 q -2.352,0.096 -4.656,0.192 -2.304,0.048 -4.656,0.144 l -0.432,0.24 0.096,0.48 0.288,0.096 q 0.72,-0.048 1.248,0.24 0.576,0.24 0.96,0.72 0.384,0.48 0.576,1.104 0.24,0.576 0.24,1.2 0.048,2.016 -0.096,4.032 -0.096,1.968 -0.144,3.984 -0.096,4.272 -0.096,8.496 0.048,4.176 0.144,8.448 -4.512,-4.992 -8.976,-10.176 -4.464,-5.232 -8.976,-10.176 -1.536,-1.68 -3.024,-3.312 -1.488,-1.632 -3.024,-3.312 -0.624,-0.672 -1.296,-1.44 -0.624,-0.768 -1.296,-1.344 -0.192,-0.192 -0.528,-0.096 -0.336,0.048 -0.384,0.384 -0.048,0.528 0,1.104 0.096,0.528 0.096,1.056 0.096,1.68 0.144,3.312 0.048,1.584 0.096,3.216 0.096,4.368 0.096,8.976 0.048,4.56 -0.048,8.928 -0.048,1.92 -0.048,3.84 0.048,1.92 -0.144,3.792 -0.144,1.392 -1.056,2.352 -0.864,0.912 -2.256,1.056 l -0.432,0.24 q 0.048,0.144 0.096,0.384 0.096,0.192 0.288,0.24 2.304,-0.096 4.608,-0.192 2.352,-0.096 4.656,-0.096 l 0.432,-0.288 v -0.48 l -0.384,-0.096 q -1.392,-0.384 -2.16,-1.008 -0.768,-0.672 -0.864,-2.208 -0.096,-1.824 0,-3.936 0.144,-2.16 0.192,-4.08 0.048,-4.224 0,-8.688 0,-4.464 -0.096,-8.688 4.512,5.04 8.976,10.272 4.464,5.232 8.976,10.224 1.536,1.68 3.024,3.312 1.488,1.632 3.024,3.264 0.624,0.672 1.296,1.488 0.672,0.816 1.344,1.344 0.192,0.144 0.528,0.096 0.384,0 0.432,-0.384 0.048,-0.528 -0.048,-1.056 -0.048,-0.576 -0.096,-1.152 -0.096,-1.632 -0.144,-3.264 -0.048,-1.632 -0.096,-3.264 -0.144,-4.416 -0.144,-8.784 0,-4.368 0.096,-8.784 0.048,-1.872 0.048,-3.792 0,-1.968 0.192,-3.84 0.144,-1.392 1.008,-2.4 0.912,-1.008 2.304,-1.104 z"
     style="font-style:normal;font-variant:normal;font-weight:normal;font-stretch:normal;font-size:48px;font-family:CapitalisTypOasis;-inkscape-font-specification:CapitalisTypOasis"
     id="path42" /><path
     d="m 213.43744,167.02938 -0.528,-0.624 q -1.632,-0.096 -2.928,-1.104 -1.248,-1.056 -1.92,-2.544 -2.592,-5.904 -4.848,-11.856 -2.256,-6 -4.56,-12 l -2.88,-7.632 -0.864,-2.16 q -0.144,-0.24 -0.528,-0.24 -0.336,0 -0.48,0.24 -0.384,0.72 -0.672,1.632 -0.288,0.864 -0.624,1.632 l -2.928,7.68 q -2.256,5.76 -4.464,11.472 -2.208,5.664 -4.608,11.376 v -0.048 q -0.672,1.392 -1.92,2.448 -1.248,1.008 -2.832,1.104 l -0.432,0.288 q 0,0 0.144,0.288 0.144,0.288 0.24,0.288 2.112,0 4.176,-0.096 2.112,-0.144 4.272,-0.192 l 0.432,-0.24 v -0.48 q -0.672,-0.24 -1.104,-0.384 -0.384,-0.144 -0.48,-1.056 -0.048,-0.24 0.288,-1.2 0.336,-1.008 0.864,-2.352 0.528,-1.392 1.152,-2.928 0.672,-1.584 1.248,-2.976 0.624,-1.44 1.056,-2.544 0.48,-1.104 0.672,-1.584 h 10.128 q 0.144,0.384 0.576,1.488 0.48,1.104 1.056,2.592 0.576,1.44 1.2,3.072 0.672,1.632 1.2,3.024 0.528,1.344 0.864,2.304 0.336,0.912 0.336,1.008 -0.096,0.528 -0.336,0.912 -0.192,0.384 -0.864,0.432 l -0.384,0.24 q 0.048,0.096 0.144,0.336 0.096,0.24 0.288,0.288 0.768,0.096 1.536,0.096 0.768,-0.048 1.536,0 1.824,0.048 3.648,0.096 1.872,0.048 3.696,0.144 z m -15.936,-18.432 q -2.016,0 -4.08,0.048 -2.016,0 -4.032,-0.048 1.104,-2.592 2.064,-5.232 0.96,-2.64 2.016,-5.28 z"
     style="font-style:normal;font-variant:normal;font-weight:normal;font-stretch:normal;font-size:48px;font-family:CapitalisTypOasis;-inkscape-font-specification:CapitalisTypOasis"
     id="path44" /><path
     d="m 232.13873,166.98138 -0.432,-0.624 q -1.248,-0.192 -2.16,-1.2 -0.864,-1.056 -0.864,-2.304 v -29.28 q 0,-1.296 0.864,-2.304 0.912,-1.008 2.16,-1.248 l 0.432,-0.336 q -0.048,-0.096 -0.192,-0.288 -0.096,-0.192 -0.24,-0.24 -2.592,0.384 -5.232,0.384 -2.64,0 -5.232,-0.336 l -0.432,0.192 0.432,0.672 q 1.248,0.144 2.112,1.2 0.912,1.056 0.912,2.304 v 29.28 q 0,1.248 -0.912,2.304 -0.864,1.008 -2.112,1.2 l -0.432,0.336 q 0.048,0.096 0.144,0.288 0.144,0.192 0.288,0.24 5.232,-0.72 10.464,0 z"
     style="font-style:normal;font-variant:normal;font-weight:normal;font-stretch:normal;font-size:48px;font-family:CapitalisTypOasis;-inkscape-font-specification:CapitalisTypOasis"
     id="path46" /><path
     d="m 258.60021,130.64538 -0.336,-0.384 q -2.256,-0.528 -4.56,-0.768 -2.304,-0.24 -4.608,-0.192 -1.92,0.048 -3.696,0.72 -1.776,0.624 -3.168,2.016 -1.296,1.344 -2.016,3.12 -0.672,1.728 -0.624,3.552 0.048,1.248 0.288,2.496 0.24,1.248 0.912,2.352 0.768,1.2 2.064,2.4 1.344,1.152 2.88,2.4 1.536,1.2 3.12,2.448 1.632,1.248 2.928,2.544 1.296,1.248 2.112,2.64 0.864,1.344 0.864,2.736 0,0.912 -0.432,1.872 -0.432,0.912 -1.008,1.584 -1.44,1.584 -3.504,1.968 -2.016,0.336 -4.224,-0.096 -2.16,-0.432 -4.224,-1.344 -2.064,-0.912 -3.552,-1.872 l -0.48,-0.048 -0.384,0.576 q 0.24,0.96 0.336,1.968 0.144,1.008 0.384,1.968 l 0.336,0.288 q 2.736,0.672 5.472,0.96 2.784,0.288 5.568,0.336 1.824,0 3.552,-0.624 1.776,-0.624 3.12,-1.968 1.296,-1.296 1.968,-3.072 0.72,-1.824 0.672,-3.648 -0.048,-2.448 -1.152,-4.368 -1.056,-1.92 -2.688,-3.504 -1.584,-1.584 -3.456,-2.976 -1.872,-1.392 -3.504,-2.784 -1.632,-1.392 -2.736,-2.88 -1.104,-1.488 -1.152,-3.312 -0.048,-1.104 0.432,-2.064 0.528,-0.96 1.248,-1.776 1.056,-1.152 2.688,-1.68 1.68,-0.576 3.408,-0.528 1.776,0 3.408,0.624 1.632,0.576 2.688,1.728 l 0.48,0.144 q 0.144,-0.096 0.288,-0.192 0.192,-0.096 0.192,-0.288 0.096,-0.768 0.096,-1.536 0,-0.768 0,-1.536 z"
     style="font-style:normal;font-variant:normal;font-weight:normal;font-stretch:normal;font-size:48px;font-family:CapitalisTypOasis;-inkscape-font-specification:CapitalisTypOasis"
     id="path48" /><path
     d="m 286.91124,130.64538 -0.336,-0.384 q -2.256,-0.528 -4.56,-0.768 -2.304,-0.24 -4.608,-0.192 -1.92,0.048 -3.696,0.72 -1.776,0.624 -3.168,2.016 -1.296,1.344 -2.016,3.12 -0.672,1.728 -0.624,3.552 0.048,1.248 0.288,2.496 0.24,1.248 0.912,2.352 0.768,1.2 2.064,2.4 1.344,1.152 2.88,2.4 1.536,1.2 3.12,2.448 1.632,1.248 2.928,2.544 1.296,1.248 2.112,2.64 0.864,1.344 0.864,2.736 0,0.912 -0.432,1.872 -0.432,0.912 -1.008,1.584 -1.44,1.584 -3.504,1.968 -2.016,0.336 -4.224,-0.096 -2.16,-0.432 -4.224,-1.344 -2.064,-0.912 -3.552,-1.872 l -0.48,-0.048 -0.384,0.576 q 0.24,0.96 0.336,1.968 0.144,1.008 0.384,1.968 l 0.336,0.288 q 2.736,0.672 5.472,0.96 2.784,0.288 5.568,0.336 1.824,0 3.552,-0.624 1.776,-0.624 3.12,-1.968 1.296,-1.296 1.968,-3.072 0.72,-1.824 0.672,-3.648 -0.048,-2.448 -1.152,-4.368 -1.056,-1.92 -2.688,-3.504 -1.584,-1.584 -3.456,-2.976 -1.872,-1.392 -3.504,-2.784 -1.632,-1.392 -2.736,-2.88 -1.104,-1.488 -1.152,-3.312 -0.048,-1.104 0.432,-2.064 0.528,-0.96 1.248,-1.776 1.056,-1.152 2.688,-1.68 1.68,-0.576 3.408,-0.528 1.776,0 3.408,0.624 1.632,0.576 2.688,1.728 l 0.48,0.144 q 0.144,-0.096 0.288,-0.192 0.192,-0.096 0.192,-0.288 0.096,-0.768 0.096,-1.536 0,-0.768 0,-1.536 z"
     style="font-style:normal;font-variant:normal;font-weight:normal;font-stretch:normal;font-size:48px;font-family:CapitalisTypOasis;-inkscape-font-specification:CapitalisTypOasis"
     id="path50" /><path
     d="m 320.42945,161.41338 -0.24,-0.432 -0.48,-0.096 -0.336,0.192 q -0.432,1.536 -1.776,2.4 -1.344,0.816 -2.88,0.816 -3.168,-0.048 -6.288,-0.096 -3.12,-0.048 -6.288,0.048 0.048,-3.84 0.096,-7.632 0.048,-3.792 0.048,-7.632 h 6.672 q 1.056,0 1.824,0.72 0.816,0.72 1.056,1.68 0.192,0.192 0.624,0.288 0.48,0.048 0.48,-0.384 v -7.248 l -0.336,-0.384 -0.48,0.048 -0.288,0.24 q -0.288,0.96 -1.104,1.68 -0.768,0.672 -1.776,0.672 h -6.672 q 0,-3.6 -0.048,-7.152 -0.048,-3.6 -0.096,-7.2 4.128,0.048 8.304,0 0.96,-0.048 1.92,-0.096 1.008,-0.096 1.968,0 0.288,0.048 0.48,0.384 0.24,0.336 0.384,0.768 0.144,0.432 0.24,0.912 0.096,0.432 0.144,0.72 0.192,0.336 0.576,0.336 0.384,0 0.528,-0.384 0,-0.432 0,-1.104 0.048,-0.72 0.048,-1.44 0,-0.72 0,-1.392 0.048,-0.72 0.048,-1.152 -0.096,-0.096 -0.24,-0.24 -0.096,-0.144 -0.288,-0.144 -1.776,-0.096 -3.6,0.048 -1.776,0.096 -3.504,0.144 -3.744,0.048 -7.488,-0.048 -3.744,-0.096 -7.488,-0.336 0,0 -0.192,0.096 -0.192,0.096 -0.24,0.24 -0.048,0.24 0.096,0.384 0.192,0.096 0.384,0.144 1.392,0.384 2.256,1.152 0.864,0.768 0.96,2.304 0.192,3.6 0.192,7.2 0,3.6 0,7.2 0,3.84 0,7.68 0.048,3.792 -0.192,7.632 -0.096,1.296 -1.008,2.304 -0.864,1.008 -2.208,1.104 l -0.432,0.288 q 0.048,0.144 0.096,0.384 0.096,0.192 0.288,0.192 6.144,-0.336 12.192,-0.336 6.048,0 12.192,0.24 0.144,-0.048 0.288,-0.048 0.192,-0.048 0.288,-0.192 0.096,-0.288 0.288,-1.008 0.192,-0.768 0.384,-1.632 0.192,-0.864 0.336,-1.632 0.192,-0.816 0.288,-1.2 z"
     style="font-style:normal;font-variant:normal;font-weight:normal;font-stretch:normal;font-size:48px;font-family:CapitalisTypOasis;-inkscape-font-specification:CapitalisTypOasis"
     id="path52" /><path
     d="m 361.85422,128.86938 q -2.352,0.096 -4.704,0.192 -2.304,0.048 -4.656,0.144 l -0.432,0.288 0.144,0.48 0.24,0.096 q 0.672,-0.048 1.2,0.24 0.576,0.24 0.96,0.72 0.432,0.432 0.624,1.008 0.24,0.576 0.24,1.2 0,1.632 -0.096,3.312 -0.096,1.632 -0.144,3.264 -0.096,3.024 -0.096,6.24 0,3.216 0.048,6.24 0,2.4 -0.816,4.512 -0.768,2.064 -2.256,3.648 -1.44,1.536 -3.456,2.448 -2.016,0.912 -4.464,0.912 -2.448,0 -4.512,-0.912 -2.016,-0.912 -3.552,-2.448 -1.488,-1.584 -2.352,-3.648 -0.816,-2.112 -0.816,-4.512 0,-2.88 0,-5.904 0.048,-3.072 0,-5.904 -0.048,-1.824 -0.144,-3.6 -0.096,-1.776 -0.048,-3.552 0.048,-1.248 0.816,-2.256 0.816,-1.008 2.208,-0.96 l 0.432,-0.24 q -0.048,-0.096 -0.144,-0.336 -0.096,-0.288 -0.288,-0.288 -0.912,-0.096 -1.872,-0.048 -0.912,0 -1.872,-0.048 -1.872,-0.048 -3.744,-0.096 -1.824,-0.048 -3.696,-0.144 l -0.432,0.192 q 0.048,0.096 0.144,0.384 0.144,0.24 0.336,0.288 1.44,0.288 2.304,1.056 0.912,0.768 1.056,2.352 0.192,2.16 0.24,4.608 0.096,2.448 0.096,4.944 0,2.496 -0.048,4.944 -0.048,2.448 -0.048,4.656 0,3.024 1.008,5.808 1.056,2.736 3.168,4.896 2.112,2.16 4.944,3.264 2.832,1.056 5.808,1.056 3.024,0 5.808,-1.104 2.784,-1.104 4.896,-3.264 2.112,-2.16 3.168,-4.896 1.104,-2.784 1.056,-5.808 0,-2.208 -0.048,-4.656 0,-2.448 0,-4.944 0,-2.496 0.096,-4.896 0.096,-2.448 0.288,-4.656 0.096,-1.344 1.008,-2.304 0.96,-1.008 2.352,-1.104 z"
     style="font-style:normal;font-variant:normal;font-weight:normal;font-stretch:normal;font-size:48px;font-family:CapitalisTypOasis;-inkscape-font-specification:CapitalisTypOasis"
     id="path54" /><path
     d="m 408.76898,167.46138 q -1.872,-1.344 -3.36,-2.448 -1.44,-1.152 -2.784,-2.304 -1.296,-1.152 -2.64,-2.448 -1.296,-1.296 -2.88,-2.976 -1.584,-1.68 -3.552,-3.888 -1.968,-2.256 -4.56,-5.232 1.392,-0.384 2.592,-1.152 1.248,-0.768 2.208,-1.872 1.104,-1.296 1.68,-2.928 0.576,-1.632 0.576,-3.312 0,-2.016 -0.768,-3.744 -0.72,-1.728 -2.064,-3.024 -1.296,-1.296 -3.072,-2.016 -1.776,-0.768 -3.744,-0.768 -3.744,-0.048 -7.488,-0.144 -3.696,-0.096 -7.44,-0.24 0,0 -0.192,0.048 -0.192,0 -0.24,0.144 -0.144,0.384 0.048,0.48 0.24,0.048 0.432,0.144 1.392,0.048 2.304,1.104 0.912,1.008 1.008,2.352 0.24,3.6 0.24,7.2 0.048,3.6 0.048,7.2 0,3.84 -0.048,7.68 0,3.84 -0.24,7.68 -0.096,1.344 -0.96,2.352 -0.864,0.96 -2.256,1.056 l -0.48,0.24 q 0.048,0.096 0.144,0.336 0.096,0.192 0.24,0.288 2.784,-0.144 5.52,-0.192 2.784,-0.096 5.568,-0.144 l 0.48,-0.24 -0.096,-0.432 -0.336,-0.144 q -1.344,0.048 -2.208,-0.96 -0.864,-1.008 -0.864,-2.256 0,-2.496 0.048,-4.992 0.096,-2.496 0.144,-4.992 0.048,-5.28 -0.048,-10.512 -0.048,-5.232 -0.192,-10.512 1.296,0 2.592,-0.048 1.344,-0.048 2.64,0.144 1.296,0.144 2.448,0.624 1.2,0.432 2.16,1.44 1.056,1.104 1.536,2.544 0.528,1.392 0.432,2.832 -0.048,1.44 -0.672,2.832 -0.576,1.344 -1.728,2.352 -1.44,1.248 -2.928,1.68 -1.44,0.384 -3.264,0.576 -0.096,0 -0.24,0.048 -0.144,0.048 -0.24,0.096 l -0.048,0.48 q 3.744,3.744 7.44,7.536 3.696,3.744 7.44,7.536 0.432,0.432 1.008,1.056 0.624,0.576 1.248,1.152 0.672,0.528 1.344,1.008 0.672,0.48 1.248,0.72 1.344,0.576 3.168,0.912 1.824,0.384 3.264,0.768 z"
     style="font-style:normal;font-variant:normal;font-weight:normal;font-stretch:normal;font-size:48px;font-family:CapitalisTypOasis;-inkscape-font-specification:CapitalisTypOasis"
     id="path56" /></g>
</g></g>
</svg>
